<svg xmlns="http://www.w3.org/2000/svg" viewBox="0 0 335.4 110.0" width="335.4" height="110.0" role="img" aria-label="Angkasa"><title>Angkasa</title>
  <g transform="translate(44.0 55)">
  <path fill-rule="evenodd" fill="#C07C12" d="M 0 -30 C 12 -18 15 -2 13 12 L -13 12 C -15 -2 -12 -18 0 -30 Z M 6.5 -9 A 6.5 6.5 0 1 1 -6.5 -9 A 6.5 6.5 0 1 1 6.5 -9 Z"/>
    <path d="M -13 4 L -25 18 L -13 15 Z" fill="#16203A"/>
    <path d="M 13 4 L 25 18 L 13 15 Z" fill="#16203A"/>
    <path d="M -6 14 Q 0 30 6 14 Z" fill="#16203A"/>
  </g>
  <path fill="#C07C12" d="M138.528 66.568Q139.2 67.968 139.256 68.94800000000001Q139.312 69.928 138.668 70.684Q138.024 71.44 136.56799999999998 72.168Q134.328 73.232 133.096 72.812Q131.864 72.392 130.8 70.152L119.824 47.192L108.904 70.152Q107.784 72.336 106.58000000000001 72.756Q105.376 73.176 103.136 72.112Q101.68 71.44 101.036 70.684Q100.392 69.928 100.44800000000001 68.892Q100.504 67.856 101.232 66.456L115.96000000000001 35.824Q116.52 34.704 117.612 34.032Q118.70400000000001 33.36 119.88 33.36Q120.72 33.36 121.44800000000001 33.668Q122.176 33.976 122.76400000000001 34.536Q123.352 35.096 123.744 35.88ZM110.416 63.376 113.888 56.152H125.816L129.288 63.376Z M146.20000000000002 72.448Q144.12800000000001 72.448 143.26 71.86Q142.392 71.272 142.196 70.292Q142.0 69.312 142.0 68.248V48.536Q142.0 47.471999999999994 142.224 46.547999999999995Q142.448 45.623999999999995 143.316 45.06399999999999Q144.184 44.504 146.256 44.504Q148.048 44.504 148.888 44.980000000000004Q149.728 45.456 149.98000000000002 46.128Q150.232 46.8 150.232 47.388Q150.232 47.976 150.344 48.2L150.008 49.263999999999996Q150.12 48.424 150.876 47.556Q151.632 46.688 152.78 45.988Q153.928 45.288 155.244 44.896Q156.56 44.504 157.848 44.504Q160.536 44.504 162.63600000000002 45.483999999999995Q164.73600000000002 46.464 166.192 48.312Q167.648 50.16 168.404 52.652Q169.16 55.144 169.16 58.112V68.304Q169.16 69.368 168.964 70.348Q168.768 71.328 167.9 71.888Q167.032 72.448 164.96 72.448Q162.832 72.448 161.964 71.86Q161.096 71.272 160.872 70.292Q160.648 69.312 160.648 68.248V58.112Q160.648 56.432 160.08800000000002 55.256Q159.52800000000002 54.08 158.40800000000002 53.436Q157.288 52.792 155.66400000000002 52.792Q154.04000000000002 52.792 152.86400000000003 53.464Q151.68800000000002 54.135999999999996 151.044 55.312Q150.4 56.488 150.4 58.112V68.304Q150.4 69.368 150.204 70.348Q150.008 71.328 149.14000000000001 71.888Q148.27200000000002 72.448 146.20000000000002 72.448Z M186.128 84.04Q184.168 84.04 182.208 83.536Q180.248 83.032 178.624 82.19200000000001Q177.0 81.352 176.048 80.4Q175.096 79.44800000000001 175.096 78.496Q175.096 77.6 175.43200000000002 76.844Q175.768 76.088 176.44 75.36Q177.224 74.52 177.784 74.072Q178.344 73.624 179.128 73.624Q179.912 73.624 180.52800000000002 74.044Q181.144 74.464 181.844 74.96799999999999Q182.544 75.472 183.608 75.892Q184.672 76.312 186.296 76.312Q187.472 76.312 188.424 75.892Q189.376 75.472 190.10399999999998 74.66Q190.832 73.848 191.224 72.756Q191.61599999999999 71.664 191.61599999999999 70.32V47.135999999999996Q191.784 45.68 192.764 45.036Q193.744 44.391999999999996 195.76 44.391999999999996Q197.776 44.391999999999996 198.58800000000002 44.98Q199.4 45.568 199.596 46.519999999999996Q199.792 47.471999999999994 199.792 48.536V70.656Q199.792 73.848 198.61599999999999 76.34Q197.44 78.832 195.48000000000002 80.53999999999999Q193.52 82.248 191.11200000000002 83.144Q188.704 84.04 186.128 84.04ZM185.12 71.776Q182.6 71.776 180.332 70.684Q178.064 69.592 176.3 67.688Q174.536 65.784 173.52800000000002 63.32000000000001Q172.52 60.856 172.52 58.112Q172.52 55.367999999999995 173.52800000000002 52.931999999999995Q174.536 50.495999999999995 176.3 48.62Q178.064 46.744 180.332 45.652Q182.6 44.56 185.12 44.56Q187.584 44.56 189.32 45.54Q191.056 46.519999999999996 192.14800000000002 48.339999999999996Q193.24 50.16 193.744 52.652Q194.248 55.144 194.248 58.224000000000004Q194.248 62.368 193.35199999999998 65.42Q192.456 68.472 190.44 70.124Q188.424 71.776 185.12 71.776ZM186.128 63.656Q187.584 63.656 188.76 62.9Q189.936 62.144 190.63600000000002 60.912Q191.336 59.68 191.336 58.112Q191.336 56.544 190.63600000000002 55.312Q189.936 54.08 188.732 53.352Q187.528 52.623999999999995 186.016 52.623999999999995Q184.504 52.623999999999995 183.32799999999997 53.352Q182.152 54.08 181.452 55.34Q180.752 56.6 180.752 58.168Q180.752 59.68 181.48000000000002 60.912Q182.208 62.144 183.41199999999998 62.9Q184.61599999999999 63.656 186.128 63.656Z M227.568 64.888Q229.304 66.4 229.416 67.772Q229.52800000000002 69.144 227.904 70.936Q226.672 72.224 225.748 72.616Q224.824 73.008 223.928 72.644Q223.032 72.28 221.856 71.216L213.008 63.488V68.304Q213.008 69.424 212.812 70.376Q212.616 71.328 211.748 71.916Q210.88 72.504 208.808 72.504Q206.792 72.504 205.89600000000002 71.916Q205.0 71.328 204.804 70.348Q204.608 69.368 204.608 68.248V35.936Q204.608 34.816 204.832 33.864000000000004Q205.056 32.912 205.952 32.324Q206.848 31.735999999999997 208.864 31.735999999999997Q210.88 31.735999999999997 211.748 32.324Q212.616 32.912 212.812 33.891999999999996Q213.008 34.872 213.008 35.992V52.903999999999996L219.28 46.855999999999995Q220.4 45.792 221.38 45.4Q222.36 45.007999999999996 223.312 45.343999999999994Q224.264 45.68 225.328 46.855999999999995Q227.12 48.816 227.06400000000002 50.02Q227.008 51.224000000000004 225.328 52.903999999999996L219.28 58.391999999999996Z M253.83200000000002 72.448Q251.76000000000002 72.448 250.78000000000003 71.72Q249.8 70.992 249.8 69.928L250.36 68.976Q250.02400000000003 69.536 249.072 70.348Q248.12 71.16 246.608 71.804Q245.096 72.448 242.85600000000002 72.448Q240.28000000000003 72.448 237.95600000000002 71.328Q235.632 70.208 233.84000000000003 68.22Q232.04800000000003 66.232 231.01200000000003 63.712Q229.97600000000003 61.192 229.97600000000003 58.391999999999996Q229.97600000000003 55.647999999999996 231.01200000000003 53.156Q232.04800000000003 50.664 233.86800000000002 48.732Q235.68800000000002 46.8 237.98400000000004 45.68Q240.28000000000003 44.56 242.85600000000002 44.56Q244.92800000000003 44.56 246.38400000000001 45.148Q247.84000000000003 45.736000000000004 248.82000000000002 46.52Q249.8 47.304 250.30400000000003 48.032L249.85600000000002 47.248000000000005Q249.8 45.903999999999996 250.78000000000003 45.20399999999999Q251.76000000000002 44.504 253.888 44.504Q255.90400000000002 44.504 256.77200000000005 45.120000000000005Q257.64000000000004 45.736000000000004 257.836 46.744Q258.03200000000004 47.751999999999995 258.03200000000004 48.872V68.192Q258.03200000000004 69.256 257.836 70.26400000000001Q257.64000000000004 71.272 256.77200000000005 71.86Q255.90400000000002 72.448 253.83200000000002 72.448ZM244.08800000000002 64.104Q245.544 64.104 246.74800000000002 63.348Q247.95200000000003 62.592 248.65200000000004 61.304Q249.35200000000003 60.016 249.35200000000003 58.448Q249.35200000000003 56.824 248.62400000000002 55.564Q247.89600000000002 54.304 246.66400000000002 53.548Q245.43200000000002 52.792 243.97600000000003 52.792Q242.352 52.792 241.092 53.576Q239.83200000000002 54.36 239.07600000000002 55.647999999999996Q238.32000000000002 56.936 238.32000000000002 58.56Q238.32000000000002 60.072 239.07600000000002 61.332Q239.83200000000002 62.592 241.14800000000002 63.348Q242.46400000000003 64.104 244.08800000000002 64.104Z"/>
  <path fill="#16203A" d="M272.592 72.952Q271.08 72.952 269.31600000000003 72.616Q267.552 72.28 265.872 71.636Q264.192 70.992 263.072 70.124Q261.952 69.256 261.784 68.136Q261.672 67.576 261.812 66.93199999999999Q261.952 66.288 262.344 65.588Q262.736 64.888 263.296 64.104Q263.744 63.488 264.30400000000003 63.32Q264.86400000000003 63.152 265.592 63.376Q266.488 63.544 267.41200000000003 63.964Q268.336 64.384 269.26 64.86Q270.184 65.336 271.192 65.69999999999999Q272.2 66.064 273.264 66.064Q274.832 66.064 275.7 65.588Q276.568 65.112 276.568 64.272Q276.568 63.656 276.204 63.263999999999996Q275.84000000000003 62.872 275.196 62.564Q274.552 62.256 273.712 62.032Q272.872 61.808 271.89200000000005 61.556Q270.91200000000003 61.304 269.904 61.024Q268.504 60.632 267.216 60.016Q265.928 59.4 264.86400000000003 58.42Q263.8 57.44 263.18399999999997 56.012Q262.568 54.584 262.568 52.512Q262.568 49.768 263.856 47.92Q265.144 46.072 267.608 45.092Q270.072 44.111999999999995 273.6 44.111999999999995Q274.608 44.111999999999995 275.616 44.224Q276.624 44.336 277.60400000000004 44.616Q278.584 44.896 279.536 45.288Q280.488 45.68 281.44 46.239999999999995Q283.12 47.024 283.17600000000004 48.368Q283.232 49.712 282.224 51.111999999999995Q281.608 52.064 280.93600000000004 52.483999999999995Q280.264 52.903999999999996 279.536 52.736000000000004Q278.64 52.512 277.604 52.008Q276.568 51.504000000000005 275.41999999999996 51.056000000000004Q274.272 50.608000000000004 273.152 50.608000000000004Q272.2 50.608000000000004 271.528 50.86Q270.856 51.111999999999995 270.52 51.532Q270.184 51.952 270.184 52.512Q270.184 53.239999999999995 270.60400000000004 53.66Q271.024 54.08 271.752 54.36Q272.48 54.64 273.432 54.864000000000004Q274.384 55.088 275.504 55.312Q277.016 55.592 278.612 56.068Q280.208 56.544 281.524 57.44Q282.84000000000003 58.336 283.65200000000004 59.848Q284.464 61.36 284.464 63.824Q284.464 68.248 281.384 70.6Q278.30400000000003 72.952 272.592 72.952Z M311.00800000000004 72.448Q308.93600000000004 72.448 307.956 71.72Q306.97600000000006 70.992 306.97600000000006 69.928L307.53600000000006 68.976Q307.20000000000005 69.536 306.24800000000005 70.348Q305.29600000000005 71.16 303.78400000000005 71.804Q302.27200000000005 72.448 300.03200000000004 72.448Q297.456 72.448 295.13200000000006 71.328Q292.80800000000005 70.208 291.0160000000001 68.22Q289.22400000000005 66.232 288.18800000000005 63.712Q287.15200000000004 61.192 287.15200000000004 58.391999999999996Q287.15200000000004 55.647999999999996 288.18800000000005 53.156Q289.22400000000005 50.664 291.04400000000004 48.732Q292.86400000000003 46.8 295.16 45.68Q297.456 44.56 300.03200000000004 44.56Q302.10400000000004 44.56 303.56000000000006 45.148Q305.016 45.736000000000004 305.99600000000004 46.52Q306.97600000000006 47.304 307.48 48.032L307.03200000000004 47.248000000000005Q306.97600000000006 45.903999999999996 307.956 45.20399999999999Q308.93600000000004 44.504 311.064 44.504Q313.08000000000004 44.504 313.94800000000004 45.120000000000005Q314.81600000000003 45.736000000000004 315.01200000000006 46.744Q315.208 47.751999999999995 315.208 48.872V68.192Q315.208 69.256 315.01200000000006 70.26400000000001Q314.81600000000003 71.272 313.94800000000004 71.86Q313.08000000000004 72.448 311.00800000000004 72.448ZM301.264 64.104Q302.72 64.104 303.92400000000004 63.348Q305.12800000000004 62.592 305.82800000000003 61.304Q306.528 60.016 306.528 58.448Q306.528 56.824 305.80000000000007 55.564Q305.07200000000006 54.304 303.84000000000003 53.548Q302.60800000000006 52.792 301.15200000000004 52.792Q299.528 52.792 298.26800000000003 53.576Q297.00800000000004 54.36 296.25200000000007 55.647999999999996Q295.49600000000004 56.936 295.49600000000004 58.56Q295.49600000000004 60.072 296.25200000000007 61.332Q297.00800000000004 62.592 298.32400000000007 63.348Q299.64000000000004 64.104 301.264 64.104Z"/>
  </svg>